<svg width="24" height="25" viewBox="0 0 24 25" fill="none" xmlns="http://www.w3.org/2000/svg">
<g clip-path="url(#clip0_17_438)">
<path d="M9 19.1874C4 20.6874 4 16.6874 2 16.1874M16 22.1874V18.3174C16.0375 17.8406 15.9731 17.3612 15.811 16.9112C15.6489 16.4612 15.3929 16.0509 15.06 15.7074C18.2 15.3574 21.5 14.1674 21.5 8.70744C21.4997 7.31126 20.9627 5.96864 20 4.95744C20.4559 3.73594 20.4236 2.38579 19.91 1.18744C19.91 1.18744 18.73 0.837438 16 2.66744C13.708 2.04626 11.292 2.04626 9 2.66744C6.27 0.837438 5.09 1.18744 5.09 1.18744C4.57638 2.38579 4.54414 3.73594 5 4.95744C4.03013 5.97614 3.49252 7.3309 3.5 8.73744C3.5 14.1574 6.8 15.3474 9.94 15.7374C9.611 16.0774 9.35726 16.4828 9.19531 16.9274C9.03335 17.3719 8.96681 17.8455 9 18.3174V22.1874" stroke="#1E1E1E" stroke-width="2.5" stroke-linecap="round" stroke-linejoin="round"/>
</g>
<defs>
<clipPath id="clip0_17_438">
<rect width="24" height="24" fill="white" transform="translate(0 0.1875)"/>
</clipPath>
</defs>
</svg>
