<svg width="20" height="20" viewBox="0 0 20 20" fill="none" xmlns="http://www.w3.org/2000/svg">
<g clip-path="url(#clip0_15_949)">
<path d="M18.3334 10.0001C18.3334 14.6025 14.6024 18.3334 10 18.3334M18.3334 10.0001C18.3334 5.39771 14.6024 1.66675 10 1.66675M18.3334 10.0001H1.66669M10 18.3334C5.39765 18.3334 1.66669 14.6025 1.66669 10.0001M10 18.3334C12.0844 16.0515 13.269 13.0901 13.3334 10.0001C13.269 6.91011 12.0844 3.94871 10 1.66675M10 18.3334C7.91562 16.0515 6.73106 13.0901 6.66669 10.0001C6.73106 6.91011 7.91562 3.94871 10 1.66675M1.66669 10.0001C1.66669 5.39771 5.39765 1.66675 10 1.66675" stroke="#1E1E1E" stroke-width="2" stroke-linecap="round" stroke-linejoin="round"/>
</g>
<defs>
<clipPath id="clip0_15_949">
<rect width="20" height="20" fill="white"/>
</clipPath>
</defs>
</svg>
