<svg width="20" height="21" viewBox="0 0 20 21" fill="none" xmlns="http://www.w3.org/2000/svg">
<path d="M10 0C14.58 5.64849e-05 18.3203 3.60121 18.3203 8.07617C18.3202 10.808 16.9205 13.2141 14.793 14.6729C14.5734 15.0917 14.3296 15.6223 14.2451 16.043L14.2217 16.1895L14.1943 16.4707C14.176 16.7642 14.1822 17.087 14.1973 17.3701C14.2286 17.9638 13.7941 18.4808 13.21 18.5625C13.0639 19.1257 12.7665 19.6453 12.3379 20.0605C11.7152 20.6636 10.8742 21 10 21H9.9873L9.84766 20.9961H9.83691C9.07633 20.9596 8.34879 20.6696 7.78027 20.1709L7.77051 20.1611L7.66895 20.0674L7.66113 20.0605C7.2327 19.6455 6.93517 19.1264 6.78906 18.5635C6.24378 18.4869 5.83128 18.0319 5.80273 17.4902L5.80176 17.4775V17.3838L5.80273 17.3701C5.82278 16.9927 5.827 16.5446 5.77832 16.1895H5.77734L5.75391 16.043C5.66935 15.622 5.42502 15.0911 5.20508 14.6719C3.07844 13.213 1.67983 10.8072 1.67969 8.07617C1.67969 3.60117 5.41996 0 10 0ZM8.7998 18.9131C9.11564 19.219 9.547 19.3945 10 19.3945C10.453 19.3945 10.8844 19.219 11.2002 18.9131C11.2113 18.9023 11.2207 18.8899 11.2314 18.8789H8.76855C8.77929 18.8899 8.78871 18.9023 8.7998 18.9131ZM10 1.60645C6.2876 1.60645 3.30566 4.51787 3.30566 8.07617C3.3058 10.1506 4.31633 12.0019 5.89746 13.1885L6.22168 13.417L6.32031 13.4814L6.37891 13.584L6.97656 14.6221L6.99121 14.6475L7.00293 14.6748C7.1423 15.0012 7.2791 15.3759 7.35156 15.7441C7.42852 16.1356 7.44459 16.582 7.44043 16.9697H12.5596C12.5554 16.582 12.5715 16.1356 12.6484 15.7441C12.7208 15.3764 12.8565 15.0018 12.9961 14.6748L13.0078 14.6475L13.0225 14.6221L13.6211 13.584L13.6797 13.4814L13.7783 13.417C15.5439 12.2479 16.6942 10.289 16.6943 8.07617C16.6943 4.5179 13.7124 1.6065 10 1.60645ZM7.55078 3.08691C8.24273 2.90443 8.96937 2.88315 9.6709 3.02637C9.94146 3.08161 10.1158 3.34663 10.0605 3.61719C10.005 3.8874 9.74106 4.06204 9.4707 4.00684C8.91968 3.89435 8.34882 3.91045 7.80566 4.05371C7.26255 4.19699 6.76337 4.4626 6.34961 4.82812C5.93594 5.19361 5.61972 5.64842 5.4248 6.15332C5.22994 6.65814 5.1615 7.19991 5.22559 7.73438C5.25841 8.00838 5.06299 8.25694 4.78906 8.29004C4.51498 8.32281 4.26533 8.1276 4.23242 7.85352C4.1488 7.15621 4.23773 6.44966 4.49121 5.79297C4.74467 5.13644 5.15546 4.54922 5.6875 4.0791C6.21959 3.60904 6.85878 3.26946 7.55078 3.08691Z" fill="black"/>
</svg>
