<svg width="32" height="34" viewBox="0 0 32 34" fill="none" xmlns="http://www.w3.org/2000/svg">
<path d="M16.0005 0.125C23.1717 0.125192 29.0121 5.76091 29.0122 12.7461C29.0122 17.0391 26.8009 20.8232 23.436 23.1006C23.0719 23.7882 22.6422 24.7084 22.4966 25.4492L22.4556 25.7012C22.3757 26.2958 22.3844 27.029 22.4165 27.6338V27.7842C22.3822 28.53 21.8015 29.1578 21.0444 29.2383L21.0171 29.2402L20.9067 29.2461H20.8989C20.702 30.1726 20.2309 31.0297 19.5327 31.7061C18.5933 32.6161 17.3227 33.1249 16.0005 33.125H15.9878L15.7642 33.1191H15.7534C14.6031 33.064 13.5047 32.6245 12.647 31.8721L12.6362 31.8633L12.4751 31.7139L12.4673 31.7061C11.7691 31.0297 11.298 30.1726 11.1011 29.2461H11.0933L10.9829 29.2402L10.9692 29.2393L10.9565 29.2383C10.2015 29.1582 9.62268 28.5349 9.5835 27.7939V27.6338C9.61564 27.029 9.6243 26.2958 9.54443 25.7012L9.50342 25.4492L9.43213 25.1484C9.24633 24.4709 8.88019 23.6997 8.56396 23.1025C5.19867 20.8251 2.98782 17.0394 2.98779 12.7461C2.98792 5.76079 8.82914 0.125 16.0005 0.125ZM13.4136 29.7314C13.5395 29.9372 13.6924 30.1291 13.8706 30.3018C14.4328 30.8464 15.199 31.1553 16.0005 31.1553C16.8018 31.1552 17.5673 30.8463 18.1294 30.3018C18.3076 30.1291 18.4605 29.9372 18.5864 29.7314H13.4136ZM16.0005 2.09473C9.90409 2.09473 4.98889 6.87832 4.98877 12.7461C4.9888 16.2804 6.76944 19.4173 9.52002 21.3574L9.78955 21.542L9.88818 21.6064L9.94678 21.709L10.9028 23.3701L10.9175 23.3955L10.9292 23.4229C11.1485 23.9365 11.3581 24.5142 11.4683 25.0742C11.6064 25.7769 11.6196 26.6041 11.6001 27.2764H20.3999C20.3804 26.6041 20.3936 25.7769 20.5317 25.0742C20.6418 24.5148 20.8503 23.937 21.0698 23.4229L21.0815 23.3955L21.0972 23.3701L22.0542 21.709L22.1128 21.6064L22.2114 21.542C25.1145 19.6198 27.0112 16.3944 27.0112 12.7461C27.0111 6.87844 22.0967 2.09492 16.0005 2.09473ZM12.1577 5.05371C13.2202 4.77347 14.3363 4.74199 15.4136 4.96191C15.6841 5.01715 15.8584 5.28122 15.8032 5.55176C15.7479 5.8222 15.4839 5.99664 15.2134 5.94141C14.2867 5.75227 13.3262 5.77954 12.4126 6.02051C11.4991 6.26152 10.6589 6.70911 9.96143 7.3252C9.26398 7.94138 8.72935 8.70912 8.3999 9.5625C8.07058 10.4158 7.95555 11.3324 8.06396 12.2363C8.09652 12.5103 7.90046 12.7591 7.62646 12.792C7.3526 12.8247 7.10396 12.6292 7.0708 12.3555C6.94286 11.2887 7.07837 10.2073 7.46631 9.20215C7.85433 8.19706 8.48341 7.29702 9.29932 6.57617C10.1152 5.85544 11.0952 5.33401 12.1577 5.05371Z" fill="black"/>
</svg>
