<svg width="24" height="25" viewBox="0 0 24 25" fill="none" xmlns="http://www.w3.org/2000/svg">
<g clip-path="url(#clip0_17_439)">
<path d="M19 0.1875H5C2.239 0.1875 0 2.4265 0 5.1875V19.1875C0 21.9485 2.239 24.1875 5 24.1875H19C21.762 24.1875 24 21.9485 24 19.1875V5.1875C24 2.4265 21.762 0.1875 19 0.1875ZM8 19.1875H5V8.1875H8V19.1875ZM6.5 6.9195C5.534 6.9195 4.75 6.1295 4.75 5.1555C4.75 4.1815 5.534 3.3915 6.5 3.3915C7.466 3.3915 8.25 4.1815 8.25 5.1555C8.25 6.1295 7.467 6.9195 6.5 6.9195ZM20 19.1875H17V13.5835C17 10.2155 13 10.4705 13 13.5835V19.1875H10V8.1875H13V9.9525C14.396 7.3665 20 7.1755 20 12.4285V19.1875Z" fill="#1E1E1E"/>
</g>
<defs>
<clipPath id="clip0_17_439">
<rect width="24" height="24" fill="white" transform="translate(0 0.1875)"/>
</clipPath>
</defs>
</svg>
