<svg width="20" height="20" viewBox="0 0 20 20" fill="none" xmlns="http://www.w3.org/2000/svg">
<g clip-path="url(#clip0_15_706)">
<path d="M1.66666 18.3333L4.58332 6.24992L10.8333 4.99992L15 9.16659L13.75 15.4166L1.66666 18.3333ZM1.66666 18.3333L7.98832 12.0116M15.8333 9.99992L9.99999 4.16659L12.5 1.66659L18.3333 7.49992L15.8333 9.99992ZM9.16666 9.16659C10.0871 9.16659 10.8333 9.91278 10.8333 10.8333C10.8333 11.7537 10.0871 12.4999 9.16666 12.4999C8.24618 12.4999 7.49999 11.7537 7.49999 10.8333C7.49999 9.91278 8.24618 9.16659 9.16666 9.16659Z" stroke="#1E1E1E" stroke-width="2" stroke-linecap="round" stroke-linejoin="round"/>
</g>
<defs>
<clipPath id="clip0_15_706">
<rect width="20" height="20" fill="white" transform="matrix(0 -1 1 0 0 20)"/>
</clipPath>
</defs>
</svg>
