<svg width="32" height="33" viewBox="0 0 32 33" fill="none" xmlns="http://www.w3.org/2000/svg">
<g clip-path="url(#clip0_43_428)">
<path d="M22.6667 28.125V25.4583C22.6667 24.0438 22.1048 22.6873 21.1046 21.6871C20.1044 20.6869 18.7478 20.125 17.3333 20.125H6.66667C5.25218 20.125 3.89563 20.6869 2.89543 21.6871C1.89524 22.6873 1.33334 24.0438 1.33334 25.4583V28.125M30.6667 28.125V25.4583C30.6658 24.2766 30.2725 23.1287 29.5485 22.1948C28.8245 21.2608 27.8108 20.5938 26.6667 20.2983M21.3333 4.29833C22.4806 4.59207 23.4974 5.25927 24.2235 6.19475C24.9497 7.13023 25.3438 8.28077 25.3438 9.465C25.3438 10.6492 24.9497 11.7998 24.2235 12.7353C23.4974 13.6707 22.4806 14.3379 21.3333 14.6317M17.3333 9.45833C17.3333 12.4039 14.9455 14.7917 12 14.7917C9.05448 14.7917 6.66667 12.4039 6.66667 9.45833C6.66667 6.51281 9.05448 4.125 12 4.125C14.9455 4.125 17.3333 6.51281 17.3333 9.45833Z" stroke="#1E1E1E" stroke-width="3" stroke-linecap="round" stroke-linejoin="round"/>
</g>
<defs>
<clipPath id="clip0_43_428">
<rect width="32" height="32" fill="white" transform="translate(0 0.125)"/>
</clipPath>
</defs>
</svg>
